# xmcd
#
# Track frame offsets: 
#        150
#        13315
#        25542
#        38317
#        50675
#        63042
#        75447
#        88242
#        99845
#        111767
#        124082
#        135072
#        148360
#        159577
#        173265
#        184455
#        195952
#        208320
#        218280
#        229307
#        241112
#        252784
#        265270
#        277130
#        288265
#        298647
#        310569
#        322260
#
# Disc length: 4457 seconds
#
# Revision: 2
# Processed by: cddbd v1.5.2PL0 Copyright (c) Steve Scherf et al.
# Submitted via: ExactAudioCopyFreeDBPlugin 1.0
#
DISCID=8111671c
DTITLE=Hank Williams - Jambalaya [Living Era]
DYEAR=2003
DGENRE=Country
TTITLE0=Jambalaya (On the Bayou)
TTITLE1=Never Again Will I Knock on Your Door
TTITLE2=Pan American
TTITLE3=Last Night I Heard You Crying in Your Sleep
TTITLE4=Fly Trouble
TTITLE5=My Sweet Love Ain't Around
TTITLE6=There'll Be No Teardrops Tonight
TTITLE7=My Son Calls Another Man Daddy
TTITLE8=Why Should We Try Any More
TTITLE9=Howlin' at the Moon
TTITLE10=I Can't Help it If I'm Still in Love with You
TTITLE11=Hey, Good Lookin'
TTITLE12=I Heard That Lonesome Whistle
TTITLE13=I'd Still Want You
TTITLE14=Crazy Heart
TTITLE15=Baby, If We're Really in Love
TTITLE16=Half as Much
TTITLE17=Honky Tonk Blues
TTITLE18=I'll Never Ger Out of this World Alive
TTITLE19=Settin' the Woods on Fire
TTITLE20=Window Shopping
TTITLE21=I Won't Be Home No More
TTITLE22=You Win Again
TTITLE23=Weary Blues from Waitin'
TTITLE24=Please Don't Let Me Love You
TTITLE25=Take These Chains from My Heart
TTITLE26=Kaw-Liga
TTITLE27=Your Cheatin' Heart
EXTD=
EXTT0=
EXTT1=
EXTT2=
EXTT3=
EXTT4=
EXTT5=
EXTT6=
EXTT7=
EXTT8=
EXTT9=
EXTT10=
EXTT11=
EXTT12=
EXTT13=
EXTT14=
EXTT15=
EXTT16=
EXTT17=
EXTT18=
EXTT19=
EXTT20=
EXTT21=
EXTT22=
EXTT23=
EXTT24=
EXTT25=
EXTT26=
EXTT27=
PLAYORDER=
